<svg xmlns="http://www.w3.org/2000/svg" xmlns:xlink="http://www.w3.org/1999/xlink" data-stacking-context="true" aria-owns="w-full1" width="542" height="542" viewBox="689 205 542 542"><!-- Generated by dom-to-svg from https://www.element-to-svg.com/ --><style>@font-face { font-family: __Montserrat_337041; src: url("https://www.element-to-svg.com/_next/static/media/b1f344208eb4edfe-s.woff2") format("woff2"); font-style: normal; font-weight: 100; font-display: swap; unicode-range: U+460-52F, U+1C80-1C8A, U+20B4, U+2DE0-2DFF, U+A640-A69F, U+FE2E-FE2F; }
@font-face { font-family: __Montserrat_337041; src: url("https://www.element-to-svg.com/_next/static/media/48e2044251ef3125-s.woff2") format("woff2"); font-style: normal; font-weight: 100; font-display: swap; unicode-range: U+301, U+400-45F, U+490-491, U+4B0-4B1, U+2116; }
@font-face { font-family: __Montserrat_337041; src: url("https://www.element-to-svg.com/_next/static/media/bf24a9759715e608-s.woff2") format("woff2"); font-style: normal; font-weight: 100; font-display: swap; unicode-range: U+102-103, U+110-111, U+128-129, U+168-169, U+1A0-1A1, U+1AF-1B0, U+300-301, U+303-304, U+308-309, U+323, U+329, U+1EA0-1EF9, U+20AB; }
@font-face { font-family: __Montserrat_337041; src: url("https://www.element-to-svg.com/_next/static/media/1f173e5e25f3efee-s.woff2") format("woff2"); font-style: normal; font-weight: 100; font-display: swap; unicode-range: U+100-2BA, U+2BD-2C5, U+2C7-2CC, U+2CE-2D7, U+2DD-2FF, U+304, U+308, U+329, U+1D00-1DBF, U+1E00-1E9F, U+1EF2-1EFF, U+2020, U+20A0-20AB, U+20AD-20C0, U+2113, U+2C60-2C7F, U+A720-A7FF; }
@font-face { font-family: __Montserrat_337041; src: url("https://www.element-to-svg.com/_next/static/media/904be59b21bd51cb-s.p.woff2") format("woff2"); font-style: normal; font-weight: 100; font-display: swap; unicode-range: U+0-FF, U+131, U+152-153, U+2BB-2BC, U+2C6, U+2DA, U+2DC, U+304, U+308, U+329, U+2000-206F, U+20AC, U+2122, U+2191, U+2193, U+2212, U+2215, U+FEFF, U+FFFD; }
@font-face { font-family: __Montserrat_337041; src: url("https://www.element-to-svg.com/_next/static/media/b1f344208eb4edfe-s.woff2") format("woff2"); font-style: normal; font-weight: 200; font-display: swap; unicode-range: U+460-52F, U+1C80-1C8A, U+20B4, U+2DE0-2DFF, U+A640-A69F, U+FE2E-FE2F; }
@font-face { font-family: __Montserrat_337041; src: url("https://www.element-to-svg.com/_next/static/media/48e2044251ef3125-s.woff2") format("woff2"); font-style: normal; font-weight: 200; font-display: swap; unicode-range: U+301, U+400-45F, U+490-491, U+4B0-4B1, U+2116; }
@font-face { font-family: __Montserrat_337041; src: url("https://www.element-to-svg.com/_next/static/media/bf24a9759715e608-s.woff2") format("woff2"); font-style: normal; font-weight: 200; font-display: swap; unicode-range: U+102-103, U+110-111, U+128-129, U+168-169, U+1A0-1A1, U+1AF-1B0, U+300-301, U+303-304, U+308-309, U+323, U+329, U+1EA0-1EF9, U+20AB; }
@font-face { font-family: __Montserrat_337041; src: url("https://www.element-to-svg.com/_next/static/media/1f173e5e25f3efee-s.woff2") format("woff2"); font-style: normal; font-weight: 200; font-display: swap; unicode-range: U+100-2BA, U+2BD-2C5, U+2C7-2CC, U+2CE-2D7, U+2DD-2FF, U+304, U+308, U+329, U+1D00-1DBF, U+1E00-1E9F, U+1EF2-1EFF, U+2020, U+20A0-20AB, U+20AD-20C0, U+2113, U+2C60-2C7F, U+A720-A7FF; }
@font-face { font-family: __Montserrat_337041; src: url("https://www.element-to-svg.com/_next/static/media/904be59b21bd51cb-s.p.woff2") format("woff2"); font-style: normal; font-weight: 200; font-display: swap; unicode-range: U+0-FF, U+131, U+152-153, U+2BB-2BC, U+2C6, U+2DA, U+2DC, U+304, U+308, U+329, U+2000-206F, U+20AC, U+2122, U+2191, U+2193, U+2212, U+2215, U+FEFF, U+FFFD; }
@font-face { font-family: __Montserrat_337041; src: url("https://www.element-to-svg.com/_next/static/media/b1f344208eb4edfe-s.woff2") format("woff2"); font-style: normal; font-weight: 300; font-display: swap; unicode-range: U+460-52F, U+1C80-1C8A, U+20B4, U+2DE0-2DFF, U+A640-A69F, U+FE2E-FE2F; }
@font-face { font-family: __Montserrat_337041; src: url("https://www.element-to-svg.com/_next/static/media/48e2044251ef3125-s.woff2") format("woff2"); font-style: normal; font-weight: 300; font-display: swap; unicode-range: U+301, U+400-45F, U+490-491, U+4B0-4B1, U+2116; }
@font-face { font-family: __Montserrat_337041; src: url("https://www.element-to-svg.com/_next/static/media/bf24a9759715e608-s.woff2") format("woff2"); font-style: normal; font-weight: 300; font-display: swap; unicode-range: U+102-103, U+110-111, U+128-129, U+168-169, U+1A0-1A1, U+1AF-1B0, U+300-301, U+303-304, U+308-309, U+323, U+329, U+1EA0-1EF9, U+20AB; }
@font-face { font-family: __Montserrat_337041; src: url("https://www.element-to-svg.com/_next/static/media/1f173e5e25f3efee-s.woff2") format("woff2"); font-style: normal; font-weight: 300; font-display: swap; unicode-range: U+100-2BA, U+2BD-2C5, U+2C7-2CC, U+2CE-2D7, U+2DD-2FF, U+304, U+308, U+329, U+1D00-1DBF, U+1E00-1E9F, U+1EF2-1EFF, U+2020, U+20A0-20AB, U+20AD-20C0, U+2113, U+2C60-2C7F, U+A720-A7FF; }
@font-face { font-family: __Montserrat_337041; src: url("https://www.element-to-svg.com/_next/static/media/904be59b21bd51cb-s.p.woff2") format("woff2"); font-style: normal; font-weight: 300; font-display: swap; unicode-range: U+0-FF, U+131, U+152-153, U+2BB-2BC, U+2C6, U+2DA, U+2DC, U+304, U+308, U+329, U+2000-206F, U+20AC, U+2122, U+2191, U+2193, U+2212, U+2215, U+FEFF, U+FFFD; }
@font-face { font-family: __Montserrat_337041; src: url("https://www.element-to-svg.com/_next/static/media/b1f344208eb4edfe-s.woff2") format("woff2"); font-style: normal; font-weight: 400; font-display: swap; unicode-range: U+460-52F, U+1C80-1C8A, U+20B4, U+2DE0-2DFF, U+A640-A69F, U+FE2E-FE2F; }
@font-face { font-family: __Montserrat_337041; src: url("https://www.element-to-svg.com/_next/static/media/48e2044251ef3125-s.woff2") format("woff2"); font-style: normal; font-weight: 400; font-display: swap; unicode-range: U+301, U+400-45F, U+490-491, U+4B0-4B1, U+2116; }
@font-face { font-family: __Montserrat_337041; src: url("https://www.element-to-svg.com/_next/static/media/bf24a9759715e608-s.woff2") format("woff2"); font-style: normal; font-weight: 400; font-display: swap; unicode-range: U+102-103, U+110-111, U+128-129, U+168-169, U+1A0-1A1, U+1AF-1B0, U+300-301, U+303-304, U+308-309, U+323, U+329, U+1EA0-1EF9, U+20AB; }
@font-face { font-family: __Montserrat_337041; src: url("https://www.element-to-svg.com/_next/static/media/1f173e5e25f3efee-s.woff2") format("woff2"); font-style: normal; font-weight: 400; font-display: swap; unicode-range: U+100-2BA, U+2BD-2C5, U+2C7-2CC, U+2CE-2D7, U+2DD-2FF, U+304, U+308, U+329, U+1D00-1DBF, U+1E00-1E9F, U+1EF2-1EFF, U+2020, U+20A0-20AB, U+20AD-20C0, U+2113, U+2C60-2C7F, U+A720-A7FF; }
@font-face { font-family: __Montserrat_337041; src: url("https://www.element-to-svg.com/_next/static/media/904be59b21bd51cb-s.p.woff2") format("woff2"); font-style: normal; font-weight: 400; font-display: swap; unicode-range: U+0-FF, U+131, U+152-153, U+2BB-2BC, U+2C6, U+2DA, U+2DC, U+304, U+308, U+329, U+2000-206F, U+20AC, U+2122, U+2191, U+2193, U+2212, U+2215, U+FEFF, U+FFFD; }
@font-face { font-family: __Montserrat_337041; src: url("https://www.element-to-svg.com/_next/static/media/b1f344208eb4edfe-s.woff2") format("woff2"); font-style: normal; font-weight: 500; font-display: swap; unicode-range: U+460-52F, U+1C80-1C8A, U+20B4, U+2DE0-2DFF, U+A640-A69F, U+FE2E-FE2F; }
@font-face { font-family: __Montserrat_337041; src: url("https://www.element-to-svg.com/_next/static/media/48e2044251ef3125-s.woff2") format("woff2"); font-style: normal; font-weight: 500; font-display: swap; unicode-range: U+301, U+400-45F, U+490-491, U+4B0-4B1, U+2116; }
@font-face { font-family: __Montserrat_337041; src: url("https://www.element-to-svg.com/_next/static/media/bf24a9759715e608-s.woff2") format("woff2"); font-style: normal; font-weight: 500; font-display: swap; unicode-range: U+102-103, U+110-111, U+128-129, U+168-169, U+1A0-1A1, U+1AF-1B0, U+300-301, U+303-304, U+308-309, U+323, U+329, U+1EA0-1EF9, U+20AB; }
@font-face { font-family: __Montserrat_337041; src: url("https://www.element-to-svg.com/_next/static/media/1f173e5e25f3efee-s.woff2") format("woff2"); font-style: normal; font-weight: 500; font-display: swap; unicode-range: U+100-2BA, U+2BD-2C5, U+2C7-2CC, U+2CE-2D7, U+2DD-2FF, U+304, U+308, U+329, U+1D00-1DBF, U+1E00-1E9F, U+1EF2-1EFF, U+2020, U+20A0-20AB, U+20AD-20C0, U+2113, U+2C60-2C7F, U+A720-A7FF; }
@font-face { font-family: __Montserrat_337041; src: url("https://www.element-to-svg.com/_next/static/media/904be59b21bd51cb-s.p.woff2") format("woff2"); font-style: normal; font-weight: 500; font-display: swap; unicode-range: U+0-FF, U+131, U+152-153, U+2BB-2BC, U+2C6, U+2DA, U+2DC, U+304, U+308, U+329, U+2000-206F, U+20AC, U+2122, U+2191, U+2193, U+2212, U+2215, U+FEFF, U+FFFD; }
@font-face { font-family: __Montserrat_337041; src: url("https://www.element-to-svg.com/_next/static/media/b1f344208eb4edfe-s.woff2") format("woff2"); font-style: normal; font-weight: 600; font-display: swap; unicode-range: U+460-52F, U+1C80-1C8A, U+20B4, U+2DE0-2DFF, U+A640-A69F, U+FE2E-FE2F; }
@font-face { font-family: __Montserrat_337041; src: url("https://www.element-to-svg.com/_next/static/media/48e2044251ef3125-s.woff2") format("woff2"); font-style: normal; font-weight: 600; font-display: swap; unicode-range: U+301, U+400-45F, U+490-491, U+4B0-4B1, U+2116; }
@font-face { font-family: __Montserrat_337041; src: url("https://www.element-to-svg.com/_next/static/media/bf24a9759715e608-s.woff2") format("woff2"); font-style: normal; font-weight: 600; font-display: swap; unicode-range: U+102-103, U+110-111, U+128-129, U+168-169, U+1A0-1A1, U+1AF-1B0, U+300-301, U+303-304, U+308-309, U+323, U+329, U+1EA0-1EF9, U+20AB; }
@font-face { font-family: __Montserrat_337041; src: url("https://www.element-to-svg.com/_next/static/media/1f173e5e25f3efee-s.woff2") format("woff2"); font-style: normal; font-weight: 600; font-display: swap; unicode-range: U+100-2BA, U+2BD-2C5, U+2C7-2CC, U+2CE-2D7, U+2DD-2FF, U+304, U+308, U+329, U+1D00-1DBF, U+1E00-1E9F, U+1EF2-1EFF, U+2020, U+20A0-20AB, U+20AD-20C0, U+2113, U+2C60-2C7F, U+A720-A7FF; }
@font-face { font-family: __Montserrat_337041; src: url("https://www.element-to-svg.com/_next/static/media/904be59b21bd51cb-s.p.woff2") format("woff2"); font-style: normal; font-weight: 600; font-display: swap; unicode-range: U+0-FF, U+131, U+152-153, U+2BB-2BC, U+2C6, U+2DA, U+2DC, U+304, U+308, U+329, U+2000-206F, U+20AC, U+2122, U+2191, U+2193, U+2212, U+2215, U+FEFF, U+FFFD; }
@font-face { font-family: __Montserrat_337041; src: url("https://www.element-to-svg.com/_next/static/media/b1f344208eb4edfe-s.woff2") format("woff2"); font-style: normal; font-weight: 700; font-display: swap; unicode-range: U+460-52F, U+1C80-1C8A, U+20B4, U+2DE0-2DFF, U+A640-A69F, U+FE2E-FE2F; }
@font-face { font-family: __Montserrat_337041; src: url("https://www.element-to-svg.com/_next/static/media/48e2044251ef3125-s.woff2") format("woff2"); font-style: normal; font-weight: 700; font-display: swap; unicode-range: U+301, U+400-45F, U+490-491, U+4B0-4B1, U+2116; }
@font-face { font-family: __Montserrat_337041; src: url("https://www.element-to-svg.com/_next/static/media/bf24a9759715e608-s.woff2") format("woff2"); font-style: normal; font-weight: 700; font-display: swap; unicode-range: U+102-103, U+110-111, U+128-129, U+168-169, U+1A0-1A1, U+1AF-1B0, U+300-301, U+303-304, U+308-309, U+323, U+329, U+1EA0-1EF9, U+20AB; }
@font-face { font-family: __Montserrat_337041; src: url("https://www.element-to-svg.com/_next/static/media/1f173e5e25f3efee-s.woff2") format("woff2"); font-style: normal; font-weight: 700; font-display: swap; unicode-range: U+100-2BA, U+2BD-2C5, U+2C7-2CC, U+2CE-2D7, U+2DD-2FF, U+304, U+308, U+329, U+1D00-1DBF, U+1E00-1E9F, U+1EF2-1EFF, U+2020, U+20A0-20AB, U+20AD-20C0, U+2113, U+2C60-2C7F, U+A720-A7FF; }
@font-face { font-family: __Montserrat_337041; src: url("https://www.element-to-svg.com/_next/static/media/904be59b21bd51cb-s.p.woff2") format("woff2"); font-style: normal; font-weight: 700; font-display: swap; unicode-range: U+0-FF, U+131, U+152-153, U+2BB-2BC, U+2C6, U+2DA, U+2DC, U+304, U+308, U+329, U+2000-206F, U+20AC, U+2122, U+2191, U+2193, U+2212, U+2215, U+FEFF, U+FFFD; }
@font-face { font-family: __Montserrat_337041; src: url("https://www.element-to-svg.com/_next/static/media/b1f344208eb4edfe-s.woff2") format("woff2"); font-style: normal; font-weight: 800; font-display: swap; unicode-range: U+460-52F, U+1C80-1C8A, U+20B4, U+2DE0-2DFF, U+A640-A69F, U+FE2E-FE2F; }
@font-face { font-family: __Montserrat_337041; src: url("https://www.element-to-svg.com/_next/static/media/48e2044251ef3125-s.woff2") format("woff2"); font-style: normal; font-weight: 800; font-display: swap; unicode-range: U+301, U+400-45F, U+490-491, U+4B0-4B1, U+2116; }
@font-face { font-family: __Montserrat_337041; src: url("https://www.element-to-svg.com/_next/static/media/bf24a9759715e608-s.woff2") format("woff2"); font-style: normal; font-weight: 800; font-display: swap; unicode-range: U+102-103, U+110-111, U+128-129, U+168-169, U+1A0-1A1, U+1AF-1B0, U+300-301, U+303-304, U+308-309, U+323, U+329, U+1EA0-1EF9, U+20AB; }
@font-face { font-family: __Montserrat_337041; src: url("https://www.element-to-svg.com/_next/static/media/1f173e5e25f3efee-s.woff2") format("woff2"); font-style: normal; font-weight: 800; font-display: swap; unicode-range: U+100-2BA, U+2BD-2C5, U+2C7-2CC, U+2CE-2D7, U+2DD-2FF, U+304, U+308, U+329, U+1D00-1DBF, U+1E00-1E9F, U+1EF2-1EFF, U+2020, U+20A0-20AB, U+20AD-20C0, U+2113, U+2C60-2C7F, U+A720-A7FF; }
@font-face { font-family: __Montserrat_337041; src: url("https://www.element-to-svg.com/_next/static/media/904be59b21bd51cb-s.p.woff2") format("woff2"); font-style: normal; font-weight: 800; font-display: swap; unicode-range: U+0-FF, U+131, U+152-153, U+2BB-2BC, U+2C6, U+2DA, U+2DC, U+304, U+308, U+329, U+2000-206F, U+20AC, U+2122, U+2191, U+2193, U+2212, U+2215, U+FEFF, U+FFFD; }
@font-face { font-family: __Montserrat_337041; src: url("https://www.element-to-svg.com/_next/static/media/b1f344208eb4edfe-s.woff2") format("woff2"); font-style: normal; font-weight: 900; font-display: swap; unicode-range: U+460-52F, U+1C80-1C8A, U+20B4, U+2DE0-2DFF, U+A640-A69F, U+FE2E-FE2F; }
@font-face { font-family: __Montserrat_337041; src: url("https://www.element-to-svg.com/_next/static/media/48e2044251ef3125-s.woff2") format("woff2"); font-style: normal; font-weight: 900; font-display: swap; unicode-range: U+301, U+400-45F, U+490-491, U+4B0-4B1, U+2116; }
@font-face { font-family: __Montserrat_337041; src: url("https://www.element-to-svg.com/_next/static/media/bf24a9759715e608-s.woff2") format("woff2"); font-style: normal; font-weight: 900; font-display: swap; unicode-range: U+102-103, U+110-111, U+128-129, U+168-169, U+1A0-1A1, U+1AF-1B0, U+300-301, U+303-304, U+308-309, U+323, U+329, U+1EA0-1EF9, U+20AB; }
@font-face { font-family: __Montserrat_337041; src: url("https://www.element-to-svg.com/_next/static/media/1f173e5e25f3efee-s.woff2") format("woff2"); font-style: normal; font-weight: 900; font-display: swap; unicode-range: U+100-2BA, U+2BD-2C5, U+2C7-2CC, U+2CE-2D7, U+2DD-2FF, U+304, U+308, U+329, U+1D00-1DBF, U+1E00-1E9F, U+1EF2-1EFF, U+2020, U+20A0-20AB, U+20AD-20C0, U+2113, U+2C60-2C7F, U+A720-A7FF; }
@font-face { font-family: __Montserrat_337041; src: url("https://www.element-to-svg.com/_next/static/media/904be59b21bd51cb-s.p.woff2") format("woff2"); font-style: normal; font-weight: 900; font-display: swap; unicode-range: U+0-FF, U+131, U+152-153, U+2BB-2BC, U+2C6, U+2DA, U+2DC, U+304, U+308, U+329, U+2000-206F, U+20AC, U+2122, U+2191, U+2193, U+2212, U+2215, U+FEFF, U+FFFD; }
@font-face { font-family: __Montserrat_Fallback_337041; src: local("Arial"); ascent-override: 85.79%; descent-override: 22.25%; line-gap-override: 0%; size-adjust: 112.83%; }
@font-face { font-family: __Sora_1822b0; src: url("https://www.element-to-svg.com/_next/static/media/1d4eaed977255102-s.woff2") format("woff2"); font-style: normal; font-weight: 100; font-display: swap; unicode-range: U+100-2BA, U+2BD-2C5, U+2C7-2CC, U+2CE-2D7, U+2DD-2FF, U+304, U+308, U+329, U+1D00-1DBF, U+1E00-1E9F, U+1EF2-1EFF, U+2020, U+20A0-20AB, U+20AD-20C0, U+2113, U+2C60-2C7F, U+A720-A7FF; }
@font-face { font-family: __Sora_1822b0; src: url("https://www.element-to-svg.com/_next/static/media/f3f7e95f2dbc4fe4-s.p.woff2") format("woff2"); font-style: normal; font-weight: 100; font-display: swap; unicode-range: U+0-FF, U+131, U+152-153, U+2BB-2BC, U+2C6, U+2DA, U+2DC, U+304, U+308, U+329, U+2000-206F, U+20AC, U+2122, U+2191, U+2193, U+2212, U+2215, U+FEFF, U+FFFD; }
@font-face { font-family: __Sora_1822b0; src: url("https://www.element-to-svg.com/_next/static/media/1d4eaed977255102-s.woff2") format("woff2"); font-style: normal; font-weight: 200; font-display: swap; unicode-range: U+100-2BA, U+2BD-2C5, U+2C7-2CC, U+2CE-2D7, U+2DD-2FF, U+304, U+308, U+329, U+1D00-1DBF, U+1E00-1E9F, U+1EF2-1EFF, U+2020, U+20A0-20AB, U+20AD-20C0, U+2113, U+2C60-2C7F, U+A720-A7FF; }
@font-face { font-family: __Sora_1822b0; src: url("https://www.element-to-svg.com/_next/static/media/f3f7e95f2dbc4fe4-s.p.woff2") format("woff2"); font-style: normal; font-weight: 200; font-display: swap; unicode-range: U+0-FF, U+131, U+152-153, U+2BB-2BC, U+2C6, U+2DA, U+2DC, U+304, U+308, U+329, U+2000-206F, U+20AC, U+2122, U+2191, U+2193, U+2212, U+2215, U+FEFF, U+FFFD; }
@font-face { font-family: __Sora_1822b0; src: url("https://www.element-to-svg.com/_next/static/media/1d4eaed977255102-s.woff2") format("woff2"); font-style: normal; font-weight: 300; font-display: swap; unicode-range: U+100-2BA, U+2BD-2C5, U+2C7-2CC, U+2CE-2D7, U+2DD-2FF, U+304, U+308, U+329, U+1D00-1DBF, U+1E00-1E9F, U+1EF2-1EFF, U+2020, U+20A0-20AB, U+20AD-20C0, U+2113, U+2C60-2C7F, U+A720-A7FF; }
@font-face { font-family: __Sora_1822b0; src: url("https://www.element-to-svg.com/_next/static/media/f3f7e95f2dbc4fe4-s.p.woff2") format("woff2"); font-style: normal; font-weight: 300; font-display: swap; unicode-range: U+0-FF, U+131, U+152-153, U+2BB-2BC, U+2C6, U+2DA, U+2DC, U+304, U+308, U+329, U+2000-206F, U+20AC, U+2122, U+2191, U+2193, U+2212, U+2215, U+FEFF, U+FFFD; }
@font-face { font-family: __Sora_1822b0; src: url("https://www.element-to-svg.com/_next/static/media/1d4eaed977255102-s.woff2") format("woff2"); font-style: normal; font-weight: 400; font-display: swap; unicode-range: U+100-2BA, U+2BD-2C5, U+2C7-2CC, U+2CE-2D7, U+2DD-2FF, U+304, U+308, U+329, U+1D00-1DBF, U+1E00-1E9F, U+1EF2-1EFF, U+2020, U+20A0-20AB, U+20AD-20C0, U+2113, U+2C60-2C7F, U+A720-A7FF; }
@font-face { font-family: __Sora_1822b0; src: url("https://www.element-to-svg.com/_next/static/media/f3f7e95f2dbc4fe4-s.p.woff2") format("woff2"); font-style: normal; font-weight: 400; font-display: swap; unicode-range: U+0-FF, U+131, U+152-153, U+2BB-2BC, U+2C6, U+2DA, U+2DC, U+304, U+308, U+329, U+2000-206F, U+20AC, U+2122, U+2191, U+2193, U+2212, U+2215, U+FEFF, U+FFFD; }
@font-face { font-family: __Sora_1822b0; src: url("https://www.element-to-svg.com/_next/static/media/1d4eaed977255102-s.woff2") format("woff2"); font-style: normal; font-weight: 500; font-display: swap; unicode-range: U+100-2BA, U+2BD-2C5, U+2C7-2CC, U+2CE-2D7, U+2DD-2FF, U+304, U+308, U+329, U+1D00-1DBF, U+1E00-1E9F, U+1EF2-1EFF, U+2020, U+20A0-20AB, U+20AD-20C0, U+2113, U+2C60-2C7F, U+A720-A7FF; }
@font-face { font-family: __Sora_1822b0; src: url("https://www.element-to-svg.com/_next/static/media/f3f7e95f2dbc4fe4-s.p.woff2") format("woff2"); font-style: normal; font-weight: 500; font-display: swap; unicode-range: U+0-FF, U+131, U+152-153, U+2BB-2BC, U+2C6, U+2DA, U+2DC, U+304, U+308, U+329, U+2000-206F, U+20AC, U+2122, U+2191, U+2193, U+2212, U+2215, U+FEFF, U+FFFD; }
@font-face { font-family: __Sora_1822b0; src: url("https://www.element-to-svg.com/_next/static/media/1d4eaed977255102-s.woff2") format("woff2"); font-style: normal; font-weight: 600; font-display: swap; unicode-range: U+100-2BA, U+2BD-2C5, U+2C7-2CC, U+2CE-2D7, U+2DD-2FF, U+304, U+308, U+329, U+1D00-1DBF, U+1E00-1E9F, U+1EF2-1EFF, U+2020, U+20A0-20AB, U+20AD-20C0, U+2113, U+2C60-2C7F, U+A720-A7FF; }
@font-face { font-family: __Sora_1822b0; src: url("https://www.element-to-svg.com/_next/static/media/f3f7e95f2dbc4fe4-s.p.woff2") format("woff2"); font-style: normal; font-weight: 600; font-display: swap; unicode-range: U+0-FF, U+131, U+152-153, U+2BB-2BC, U+2C6, U+2DA, U+2DC, U+304, U+308, U+329, U+2000-206F, U+20AC, U+2122, U+2191, U+2193, U+2212, U+2215, U+FEFF, U+FFFD; }
@font-face { font-family: __Sora_1822b0; src: url("https://www.element-to-svg.com/_next/static/media/1d4eaed977255102-s.woff2") format("woff2"); font-style: normal; font-weight: 700; font-display: swap; unicode-range: U+100-2BA, U+2BD-2C5, U+2C7-2CC, U+2CE-2D7, U+2DD-2FF, U+304, U+308, U+329, U+1D00-1DBF, U+1E00-1E9F, U+1EF2-1EFF, U+2020, U+20A0-20AB, U+20AD-20C0, U+2113, U+2C60-2C7F, U+A720-A7FF; }
@font-face { font-family: __Sora_1822b0; src: url("https://www.element-to-svg.com/_next/static/media/f3f7e95f2dbc4fe4-s.p.woff2") format("woff2"); font-style: normal; font-weight: 700; font-display: swap; unicode-range: U+0-FF, U+131, U+152-153, U+2BB-2BC, U+2C6, U+2DA, U+2DC, U+304, U+308, U+329, U+2000-206F, U+20AC, U+2122, U+2191, U+2193, U+2212, U+2215, U+FEFF, U+FFFD; }
@font-face { font-family: __Sora_1822b0; src: url("https://www.element-to-svg.com/_next/static/media/1d4eaed977255102-s.woff2") format("woff2"); font-style: normal; font-weight: 800; font-display: swap; unicode-range: U+100-2BA, U+2BD-2C5, U+2C7-2CC, U+2CE-2D7, U+2DD-2FF, U+304, U+308, U+329, U+1D00-1DBF, U+1E00-1E9F, U+1EF2-1EFF, U+2020, U+20A0-20AB, U+20AD-20C0, U+2113, U+2C60-2C7F, U+A720-A7FF; }
@font-face { font-family: __Sora_1822b0; src: url("https://www.element-to-svg.com/_next/static/media/f3f7e95f2dbc4fe4-s.p.woff2") format("woff2"); font-style: normal; font-weight: 800; font-display: swap; unicode-range: U+0-FF, U+131, U+152-153, U+2BB-2BC, U+2C6, U+2DA, U+2DC, U+304, U+308, U+329, U+2000-206F, U+20AC, U+2122, U+2191, U+2193, U+2212, U+2215, U+FEFF, U+FFFD; }
@font-face { font-family: __Sora_Fallback_1822b0; src: local("Arial"); ascent-override: 85.29%; descent-override: 25.5%; line-gap-override: 0%; size-adjust: 113.73%; }
</style><g data-stacking-layer="rootBackgroundAndBorders"/><g data-stacking-layer="childStackingContextsWithNegativeStackLevels"/><g data-stacking-layer="inFlowNonInlineNonPositionedDescendants"/><g data-stacking-layer="nonPositionedFloats"/><g data-stacking-layer="inFlowInlineLevelNonPositionedDescendants"/><g data-stacking-layer="childStackingContextsWithStackLevelZeroAndPositionedDescendantsWithStackLevelZero"/><g data-stacking-layer="childStackingContextsWithPositiveStackLevels"/><g data-tag="div" id="w-full1" class="w-full" data-z-index="auto" data-stacking-context="true" aria-owns="style1 w-161"><text color="rgb(0, 0, 0)" dominant-baseline="text-after-edge" font-family="__Montserrat_337041, __Montserrat_Fallback_337041" font-size="16px" font-size-adjust="none" font-stretch="100%" font-style="normal" font-variant="normal" font-weight="400" direction="ltr" letter-spacing="normal" text-decoration="none" text-anchor="start" text-rendering="auto" unicode-bidi="isolate" word-spacing="0px" writing-mode="horizontal-tb" user-select="auto" fill="rgb(0, 0, 0)"><tspan xml:space="preserve" x="689" y="205" textLength="0" lengthAdjust="spacingAndGlyphs"> </tspan></text><g data-tag="style" id="style1" data-z-index="auto" data-stacking-context="true"/><text color="rgb(0, 0, 0)" dominant-baseline="text-after-edge" font-family="__Montserrat_337041, __Montserrat_Fallback_337041" font-size="16px" font-size-adjust="none" font-stretch="100%" font-style="normal" font-variant="normal" font-weight="400" direction="ltr" letter-spacing="normal" text-decoration="none" text-anchor="start" text-rendering="auto" unicode-bidi="isolate" word-spacing="0px" writing-mode="horizontal-tb" user-select="auto" fill="rgb(0, 0, 0)"><tspan xml:space="preserve" x="689" y="205" textLength="0" lengthAdjust="spacingAndGlyphs"> </tspan></text><g data-tag="svg" id="w-161" class="w-16 sm:w-20 md:w-24" data-z-index="auto" data-stacking-context="true" mask="url(#mask-for-w-1611)"><g data-stacking-layer="rootBackgroundAndBorders"/><g data-stacking-layer="childStackingContextsWithNegativeStackLevels"/><g data-stacking-layer="inFlowNonInlineNonPositionedDescendants"/><g data-stacking-layer="nonPositionedFloats"/><g data-stacking-layer="inFlowInlineLevelNonPositionedDescendants"/><g data-stacking-layer="childStackingContextsWithStackLevelZeroAndPositionedDescendantsWithStackLevelZero"/><g data-stacking-layer="childStackingContextsWithPositiveStackLevels"/><mask id="mask-for-w-1611"><rect width="542" height="542" x="689" y="205" fill="#ffffff"/></mask><g class="svg-content w-16 sm:w-20 md:w-24" data-view-box="0 0 283.465 283.467" data-width="" data-height="" transform="matrix(1.91204, 0, 0, 1.91204, 689.002, 205)">
  <circle cx="141.733" cy="141.734" r="141.733" transform="matrix(0.707107, -0.707107, 0.707107, 0.707107, -58.7084, 141.733)" fill="rgb(255, 255, 255)" color="rgb(0, 0, 0)" stroke="none"/>
  <path d="M141.74 283.467C63.575 283.467 0 219.893 0 141.74 0 63.58 63.575 0 141.74 0c78.14 0 141.724 63.58 141.724 141.74 0 78.153-63.584 141.727-141.724 141.727zm0-281.309C64.77 2.158 2.153 64.771 2.153 141.74c0 76.961 62.618 139.578 139.587 139.578 76.959 0 139.566-62.617 139.566-139.578C281.306 64.77 218.7 2.158 141.74 2.158z" fill="rgb(146, 146, 146)" color="rgb(0, 0, 0)" stroke="none"/>
  <path d="M30.005 167.538l.694 2.217-5 4.61 2.549 8.212 6.699.87.693 2.226-19.634-2.823-.625-2.02 14.624-13.292zm-11.87 13.535l7.788 1.104-1.948-6.309-5.84 5.205zM27.579 149.218l.307 2.392-6.86 5.04.908 7.04 7.393-.966.273 2.1-17.764 2.294-1.143-8.838c-.346-2.695-.43-7.246 4.16-7.842 3.844-.498 5.392 1.797 5.875 3.868l6.85-5.088zm-8.702 7.129c-.317-2.354-.84-4.2-3.726-3.829-2.207.284-2.788 2.334-2.534 4.249l1.035 7.998 6.202-.791-.977-7.627zM10.088 133.888c.137-2.812 1.685-5.537 5.176-5.361a4.138 4.138 0 013.565 1.914 5.104 5.104 0 014.443-2.344c4.15.215 4.854 3.672 4.712 6.695l-.513 9.98-17.9-.913.517-9.97zm7.676.39c.122-2.29-.986-3.564-2.71-3.661-1.47-.069-2.75.99-2.867 3.383l-.4 7.867 5.577.273.4-7.861zm8.11.416c.132-2.622-.454-4.375-2.612-4.487-2.1-.108-3.262 1.503-3.403 4.174l-.396 7.871 6.006.318.405-7.876zM32.52 109.161L29.097 124l-17.447-4.028 3.311-14.331 2.041.468-2.832 12.29 5.328 1.221 1.494-6.465 2.041.479-1.485 6.465 5.967 1.381 2.959-12.807 2.046.488zM34.966 102.95l-.718 1.963L17.422 98.8l.718-1.983 16.826 6.133zM40.206 91.056l-.938 1.875-14.15-7.041-2.911 5.859-1.879-.937L27.1 77.223l1.88.937-2.92 5.85 14.146 7.046zM54.092 69.483l-8.877 12.373-14.55-10.434 8.579-11.958 1.699 1.23-7.349 10.235 4.448 3.193 3.868-5.391 1.704 1.221-3.872 5.391 4.985 3.579 7.656-10.669 1.709 1.23zM68.003 55.508l-1.723 1.69-8.155-2.437-5.068 4.957 5.21 5.332-1.504 1.46L44.25 53.71l6.367-6.24c1.933-1.89 5.527-4.692 8.77-1.387 2.704 2.769 1.796 5.386.439 7.007l8.178 2.417zm-10.927-2.66c1.694-1.656 2.851-3.2.82-5.284-1.548-1.582-3.53-.816-4.912.537l-5.767 5.645 4.37 4.473 5.489-5.372zM79.18 41.324l-5.508 3.598-.981-1.499 5.513-3.598.976 1.499zM95.934 27.115c3.09-1.275 6.689-1.446 8.198 2.217 1.484 3.598-1.66 6.865-5.723 8.54a11.195 11.195 0 01-9.75-.147l.83-1.938a9.602 9.602 0 008.183.117c3.735-1.543 5.317-3.853 4.521-5.772-.859-2.07-3.271-1.972-4.922-1.294l-3.496 1.436c-3.203 1.323-6.216 1.328-7.495-1.763-.952-2.305.02-5.845 5.088-7.94a12.053 12.053 0 017.935-.439l-.581 2.027a10.028 10.028 0 00-6.587.37c-3.736 1.539-4.453 3.878-3.907 5.176.909 2.212 3.707 1.06 5.704.24l2.002-.83zM125.51 29.62l-2.281.527-4.209-5.327-8.384 1.938-1.353 6.612-2.295.522 4.282-19.356 2.051-.478L125.51 29.62zm-12.638-12.843l-1.68 7.701 6.446-1.494-4.766-6.207zM146.066 28.614l-2.105.068-.522-13.706h-.049l-6.133 12.466-7.09-11.959h-.044l.528 13.722-2.105.078-.683-17.887 2.094-.087 7.134 11.841 6.182-12.349 2.104-.083.689 17.896zM167.877 31.49l-2.314-.347-1.978-6.49-8.505-1.264-3.692 5.65-2.304-.342 11.06-16.451 2.074.308 5.66 18.936zm-7.07-16.568l-4.375 6.543 6.543.977-2.168-7.52zM185.421 37.246l-2.28-.751-1.587-8.374-6.733-2.227-2.34 7.075-1.986-.659 5.615-17.007 8.476 2.807c2.564.85 6.714 2.75 5.254 7.15-1.21 3.676-3.955 4.071-6.03 3.612l1.611 8.374zM182.78 26.32c2.241.742 4.15 1.064 5.063-1.7.694-2.104-.898-3.51-2.734-4.116l-7.661-2.534-1.958 5.933 7.29 2.417zM191.852 40.459l-1.899-.903 7.706-16.167 1.894.908-7.701 16.162zM203.18 46.817l-1.781-1.118 8.379-13.404-5.547-3.457 1.113-1.782 12.881 8.042-1.119 1.782-5.557-3.466-8.369 13.403zM223.313 62.716l-11.471-10.04 11.798-13.471 11.065 9.692-1.377 1.582-9.488-8.301-3.593 4.112 4.99 4.365-1.387 1.582-4.99-4.37-4.049 4.624 9.879 8.643-1.377 1.582zM235.867 77.92l-1.51-1.884 3.214-7.88-4.434-5.523-5.815 4.658-1.314-1.64 13.955-11.212 5.596 6.958c1.694 2.11 4.15 5.953.532 8.853-3.012 2.432-5.532 1.274-7.026-.24l-3.198 7.91zm3.715-10.614c1.485 1.84 2.9 3.144 5.181 1.328 1.729-1.387 1.152-3.443-.063-4.951l-5.054-6.29-4.878 3.921 4.814 5.992zM248.904 90.421l-3.057-5.845 1.587-.825 3.062 5.83-1.592.84zM268.948 107.696c.8 2.7.244 5.782-3.1 6.768a4.086 4.086 0 01-3.98-.606 5.138 5.138 0 01-3.428 3.687c-3.97 1.177-5.8-1.85-6.655-4.756l-2.847-9.565 17.173-5.098 2.837 9.57zm-7.373 2.188c.659 2.197 2.119 3.032 3.774 2.549 1.416-.43 2.266-1.851 1.582-4.146l-2.236-7.554-5.357 1.597 2.237 7.554zm-7.788 2.304c.756 2.52 1.884 3.985 3.97 3.37 2.016-.601 2.573-2.51 1.806-5.074l-2.241-7.558-5.767 1.714 2.232 7.548zM262.961 138.542c-4.565.463-7.539-1.666-8.1-7.125-.571-5.63 1.929-8.134 6.494-8.604l10.908-1.113.205 2.1-10.903 1.099c-3.775.38-5 2.534-4.61 6.304.391 3.779 2.007 5.625 5.792 5.244l10.908-1.104.21 2.09-10.904 1.109zM254.622 161.171l.19-2.071 15.586-10.234v-.049l-14.517-1.335.191-2.089 17.822 1.644-.19 2.093-15.762 10.185-.015.049 14.707 1.367-.19 2.081-17.822-1.641zM268.308 180.302c-1.69 5.86-7.812 6.338-10.898 5.459-3.072-.889-8.125-4.131-6.319-10.41l2.427-8.448 17.202 4.961-2.412 8.438zm-15.195-4.356c-1.133 3.907 2.134 7.002 4.878 7.793 2.807.81 7.163-.107 8.281-4.023l1.86-6.426-13.174-3.799-1.845 6.455z" fill="rgb(146, 146, 146)" color="rgb(0, 0, 0)" stroke="none"/>
  <path d="M141.74 36.246A105.49 105.49 0 10247.224 141.74 105.493 105.493 0 00141.74 36.246zm33.012 134.915v50.06h-67.12v-50.06H59.909v-62.459h47.725V58.644h67.12v50.058h47.735v62.46z" fill="rgb(228, 3, 46)" color="rgb(0, 0, 0)" stroke="none"/>
  <path d="M117.233 125.47c0-17.588 8.096-19.17 24.355-19.17 14.239 0 24.522.625 23.74 18.555h-7.48c-.351-11.514-2.544-11.954-16.523-11.954-14.6 0-16.617 1.846-16.617 10.997 0 12.563 5.982 11.504 18.287 11.855 15.649.889 23.554.45 23.554 18.289 0 18.623-8.784 19.248-25.4 19.248-16.792 0-25.493-2.012-24.082-21.094h7.46c-.17 14.502 2.642 14.502 16.622 14.502 14.062 0 17.94 0 17.94-12.92 0-12.575-5.635-10.466-17.676-11.433-13.013-1.055-24.18.527-24.18-16.875z" fill="rgb(228, 3, 46)" color="rgb(0, 0, 0)" stroke="none"/>
  <path d="M61.92 225a8.76 8.76 0 11-12.569.137A8.869 8.869 0 0161.92 225zm-10.694 11.27a6.782 6.782 0 10-.45-9.766 6.843 6.843 0 00.45 9.765zm10.889-15.567l1.499 1.406-1.548 1.631-1.49-1.416 1.539-1.62zm2.944 2.783l1.494 1.416-1.543 1.621-1.494-1.406 1.543-1.63zM74.434 244.16c2.603 1.748 4.614 4.453 2.544 7.549-2.036 3.017-6.21 2.275-9.629-.02a10.465 10.465 0 01-4.98-7.656l1.948-.37a8.963 8.963 0 004.18 6.435c3.14 2.09 5.766 2.128 6.845.507 1.172-1.738-.16-3.574-1.552-4.511l-2.945-1.973c-2.695-1.787-4.272-4.16-2.524-6.748 1.289-1.943 4.56-3.037 8.838-.166a11.072 11.072 0 014.468 5.957l-1.885.576a9.323 9.323 0 00-3.716-4.922c-3.145-2.11-5.337-1.445-6.074-.351-1.245 1.865 1.113 3.437 2.793 4.55l1.69 1.143zM85.298 261.367l-1.777-.83 6.333-13.398-5.542-2.637.835-1.777 12.876 6.084-.83 1.787-5.551-2.617-6.344 13.388zM110.318 270.264l-13.672-4.102 4.834-16.074 13.209 3.965-.566 1.875-11.324-3.399-1.48 4.912 5.962 1.797-.561 1.885-5.957-1.787-1.661 5.498 11.797 3.545-.581 1.885zM131.242 273.486l-2.241-.293-2.92-7.45-6.592-.86-.913 6.914-1.963-.244 2.212-16.65 8.296 1.103c2.51.332 6.665 1.348 6.089 5.664-.464 3.594-2.93 4.443-4.908 4.385l2.94 7.431zm-4.346-9.619c2.197.293 4.004.274 4.365-2.441.269-2.06-1.44-3.086-3.242-3.31l-7.495-1.016-.776 5.83 7.148.937zM152.917 273.31l-2.261.069-4.077-6.846-6.65.186.214 6.992-1.968.049-.517-16.758 8.364-.273c2.534-.088 6.797.253 6.929 4.609.112 3.623-2.178 4.844-4.14 5.107l4.105 6.866zm-5.845-8.779c2.217-.068 3.999-.37 3.916-3.125-.073-2.07-1.929-2.802-3.736-2.744l-7.568.234.186 5.86 7.202-.225zM173.932 269.707l-14.018 2.705-3.199-16.484 13.535-2.608.376 1.924-11.606 2.236.981 5.03 6.109-1.162.371 1.923-6.099 1.192 1.079 5.635 12.1-2.344.371 1.953zM181.681 267.217l-1.88.586-5.063-16.006 1.875-.596 5.068 16.016zM202.6 255.303a10.37 10.37 0 01-5.928 6.396c-4.117 1.895-9.688 1.192-12.105-4.082-2.427-5.273.679-9.922 4.546-11.709a11.156 11.156 0 018.76-.332l-.722 1.816a10.18 10.18 0 00-7.174.284 6.877 6.877 0 00-3.643 9.101c1.446 3.125 5.391 5.03 9.596 3.096a8.712 8.712 0 004.834-5.371l1.836.8zM222.151 245.908l-1.611 1.133-4.454-6.396-8.847 6.152 4.437 6.387-1.615 1.123-9.576-13.77 1.617-1.133 3.998 5.782 8.873-6.163-4.004-5.771 1.612-1.123 9.57 13.779zM227.317 227.998c2.246-2.178 5.317-3.574 7.905-.918 2.534 2.637.928 6.572-2.031 9.434a10.45 10.45 0 01-8.53 3.252l.044-1.983a8.868 8.868 0 007.163-2.744c2.72-2.627 3.296-5.186 1.943-6.582-1.465-1.504-3.54-.586-4.75.576l-2.54 2.461c-2.324 2.276-4.946 3.32-7.139 1.074-1.612-1.68-2.007-5.088 1.685-8.681a11.333 11.333 0 016.763-3.145l.195 1.983a9.35 9.35 0 00-5.62 2.597c-2.705 2.637-2.52 4.912-1.607 5.87 1.573 1.62 3.604-.372 5.044-1.778l1.475-1.416z" fill="rgb(146, 146, 146)" color="rgb(0, 0, 0)" stroke="none"/>
</g></g><text color="rgb(0, 0, 0)" dominant-baseline="text-after-edge" font-family="__Montserrat_337041, __Montserrat_Fallback_337041" font-size="16px" font-size-adjust="none" font-stretch="100%" font-style="normal" font-variant="normal" font-weight="400" direction="ltr" letter-spacing="normal" text-decoration="none" text-anchor="start" text-rendering="auto" unicode-bidi="isolate" word-spacing="0px" writing-mode="horizontal-tb" user-select="auto" fill="rgb(0, 0, 0)"><tspan xml:space="preserve" x="689" y="747" textLength="0" lengthAdjust="spacingAndGlyphs"> </tspan></text></g></svg>